<svg id="Camada_1" data-name="Camada 1" xmlns="http://www.w3.org/2000/svg" viewBox="0 0 509.13 604.85"><defs><style>.cls-1{fill:#874215;}</style></defs><path class="cls-1" d="M275.88,111.3c-6.21-5-16.06-5-23.21-1.83-17,7.56-20.28,34.16-21.58,44.3-5.6,43.86-28.76,214.22-59.48,447.48.51,2.78,1.28,3.48,1.86,3.59,1.29.25,2.74-2.09,3.24-2.89,8.11-13,92.79-400.1,102.21-439C281.36,152.85,289.42,122.11,275.88,111.3Zm-7.26,46.77c-4.75,12.42-8.71,25.13-13.66,37.47-10.47,26.07-14.2,43.76-15.77,43-.64-.3-.64-2.73.52-19.85,1-14.37,1.61-22.18,1.94-26.76,1-14.27,1.12-47.89,5.88-57.14.48-.93,1.74-3.38,4-3.84a5.45,5.45,0,0,1,4.18,1.28c2.16,1.84,2.31,4.94,2.44,7.82.15,3.31-.43,5.63-.13,5.7s.76-2.33,2.19-5.16c1-2,3.49-6.91,7-7.1a5.79,5.79,0,0,1,4.08,1.82C275.68,139.81,271.29,151.09,268.62,158.07Z"/><path class="cls-1" d="M254.34,173.55c-22.51-4.27-45-8.49-67.64-12.21-15.55-2.56-31.23-5.09-47-6-8.65-.49-17.86-.59-26.2,2.06a35.35,35.35,0,0,0-16.86,11.76c-6.06,7.51-10.19,16.6-10,26.42.19,9.49,3.86,19.47,12.48,24.39a23.56,23.56,0,0,0,25.69-1.76A46.2,46.2,0,0,0,138.41,201c8.18-17.11,4.91-38.17-4.4-54.17a52.94,52.94,0,0,0-21-20.51,60.91,60.91,0,0,0-28.42-6.57c-20,.08-40,8.14-55.11,21.22C15,153.6,5.72,171.6,1.48,190.22q-.82,3.66-1.4,7.36c-.4,2.57.65,5.5,3.49,6.15,2.39.54,5.72-.73,6.15-3.49A105.83,105.83,0,0,1,14,182.68q1-2.87,2.1-5.66a4.14,4.14,0,0,1,.31-.75c-.07,0-.43,1-.12.29.22-.51.44-1,.67-1.52.49-1.08,1-2.16,1.53-3.22a85.16,85.16,0,0,1,7.43-12.28c.38-.52.76-1,1.15-1.53-.76,1,.47-.58.67-.81.83-1,1.69-2,2.58-3a75.42,75.42,0,0,1,5.76-5.69c.78-.69,1.57-1.36,2.38-2,.25-.2,1.7-1.4.63-.51.54-.44,1.12-.85,1.68-1.25q2.77-2,5.71-3.78c2-1.19,4-2.29,6-3.32,1.06-.53,2.12-1,3.2-1.51.32-.14,2-1,.76-.34a16.51,16.51,0,0,1,1.64-.66,82.48,82.48,0,0,1,13.48-4c1.08-.22,2.17-.42,3.26-.6a6.31,6.31,0,0,1,1.54-.23c-1.1-.11-.59.08-.13,0l1.2-.14c2.27-.24,4.55-.38,6.84-.4a65.49,65.49,0,0,1,6.57.27l1.5.16.33,0c.55.07.44.06-.34-.05a6.26,6.26,0,0,0,.66.1c1.09.17,2.18.36,3.26.59a53.49,53.49,0,0,1,6.33,1.76c.51.18,1,.36,1.54.56l.61.24.3.12c.5.21.4.16-.29-.13.17-.09,1.16.51,1.34.6.54.25,1.08.52,1.61.79a46.85,46.85,0,0,1,5.6,3.39,8.15,8.15,0,0,1,1.33,1c-.07-.08-.91-.73-.23-.17l.64.53c.9.75,1.78,1.54,2.62,2.36s1.43,1.44,2.11,2.19c.38.42.76.86,1.12,1.29l.44.53c.09.11.94,1.23.47.58l.24.33.41.57c.34.48.68,1,1,1.45.7,1,1.36,2.1,2,3.19a32.75,32.75,0,0,1,3.19,6.34c-.38-1.24,0-.08.06.16l.27.69c.22.57.44,1.15.65,1.73.42,1.16.8,2.34,1.15,3.53a61.58,61.58,0,0,1,1.67,7.23c.06.35.43,2.3.15.87.11.54.13,1.11.19,1.65.13,1.28.21,2.56.25,3.85a51.79,51.79,0,0,1-.28,7.26c0,.23-.08.48-.09.71,0-1.24.06-.44,0-.08-.08.53-.17,1.06-.28,1.59-.24,1.22-.52,2.44-.87,3.63-.38,1.34-.9,2.62-1.35,3.94.53-1.53.41-.95.07-.19-.2.44-.4.87-.61,1.3a52.59,52.59,0,0,1-4.47,7.55c-.25.36-.54.7-.78,1.06,0,0,.79-1,.29-.38l-.42.53c-.61.75-1.25,1.47-1.92,2.17s-1.19,1.19-1.81,1.75c-.35.31-.71.61-1.08.91-.76.64.79-.55.23-.18-.27.18-.53.39-.8.58a23,23,0,0,1-2.18,1.32c-.4.21-.9.37-1.28.62.88-.58.8-.32.41-.18l-.94.34a20.77,20.77,0,0,1-2.67.65c-1,.19,1-.06.3-.05-.12,0-.23,0-.35,0l-.72,0a18.62,18.62,0,0,1-2.24-.06,5.11,5.11,0,0,0-.55,0c1.35-.06.64.09.14,0s-1.08-.21-1.61-.36-1.14-.35-1.71-.55c-.88-.31,0,0,.14.07a5.08,5.08,0,0,1-1.07-.53,16.39,16.39,0,0,1-1.6-1c-.2-.14-.9-.76-.22-.15-.28-.25-.56-.48-.83-.74a17.23,17.23,0,0,1-1.25-1.31,3.58,3.58,0,0,0-.45-.55c.69.43.38.5,0,0a21.2,21.2,0,0,1-1.76-3.07c0,.05-.28-.59-.27-.6s.44,1.11,0,0c-.16-.44-.31-.88-.45-1.33a30,30,0,0,1-.74-3c-.08-.39-.14-.79-.2-1.18-.19-1.11.12,1.23,0,0-.07-.71-.13-1.42-.17-2.13a31.57,31.57,0,0,1,.12-4.86c.11-1.05.14,0,0,0a7.43,7.43,0,0,0,.12-.75c.11-.61.24-1.22.38-1.82a34.2,34.2,0,0,1,1-3.45c.2-.54.44-1.07.63-1.62-.46,1.37.18-.35.32-.65q.69-1.44,1.5-2.82c.5-.85,1-1.68,1.57-2.49.23-.34.47-.67.7-1l.39-.53c.32-.42.74-.59-.18.22.95-.84,1.68-2.06,2.56-3a36.48,36.48,0,0,1,2.91-2.79l.73-.6c.64-.53-1.22.91-.54.42l.44-.32q.8-.57,1.62-1.08c.58-.36,1.17-.69,1.77-1l.93-.46c.5-.23,1.9-.76-.13,0a42.9,42.9,0,0,1,9.14-2.41c1.12-.17-.92.11-.51.07l.7-.08,1.44-.15c1-.09,2-.16,3.05-.21,2.28-.11,4.57-.13,6.86-.08,5.69.11,11.36.58,17,1.18,3.55.38,7.1.82,10.64,1.29l-.47-.06.87.12,1.32.18,3.15.45c2.05.3,4.1.6,6.15.92,21.82,3.34,43.53,7.38,65.22,11.43l13.56,2.55c2.56.49,5.52-.71,6.15-3.49.56-2.46-.74-5.62-3.49-6.14Z"/><path class="cls-1" d="M499.78,100.11q-2.79,4-5.72,7.83l-1.48,1.94c.91-1.21.12-.15-.11.14l-.91,1.16c-1.12,1.42-2.25,2.82-3.4,4.22q-7.31,8.88-15.42,17A212.26,212.26,0,0,1,454.13,149c-.43.34-.86.69-1.3,1,.12-.09.85-.65.14-.11l-.59.45c-.89.68-1.78,1.34-2.68,2q-2.73,2-5.53,3.91-5.57,3.8-11.41,7.18-6.11,3.53-12.47,6.57c-2.14,1-4.31,2-6.49,2.93,1.06-.46-.62.26-.89.37l-1.72.7c-1.16.46-2.32.91-3.49,1.34a151.19,151.19,0,0,1-22.57,6.51q-2.65.54-5.33,1c-.92.15-1.85.3-2.77.43l-1.24.18c-.86.12.31,0,.4-.05l-.93.12q-5.53.7-11.11,1a218.24,218.24,0,0,1-24.13,0c-9.07-.45-18.11-1.34-27.12-2.46l-3.29-.42-1.87-.25c-.84-.11,1.22.17-.14,0l-1.06-.14c-2.51-.35-5-.71-7.54-1.08q-8.08-1.2-16.15-2.56c-2.81-.47-5.61-.94-8.42-1.43-2.57-.44-5.51.68-6.15,3.49-.55,2.43.74,5.67,3.49,6.15,20.49,3.54,41.11,6.84,61.87,8.32,16.3,1.16,32.66,1,48.81-1.7a164.14,164.14,0,0,0,49.33-17.07,199.24,199.24,0,0,0,43.86-31.87,253.75,253.75,0,0,0,30-34.51q1.42-1.95,2.8-3.91c1.51-2.14.46-5.65-1.79-6.84a5.13,5.13,0,0,0-6.85,1.79Z"/></svg>