<svg id="Camada_1" data-name="Camada 1" xmlns="http://www.w3.org/2000/svg" viewBox="0 0 998.35 346.48"><defs><style>.cls-1{fill:none;}.cls-2{fill:#ffefcf;}.cls-3{fill:#1d1d1b;}.cls-4{fill:#010101;}</style></defs><path class="cls-1" d="M921.29,61.84s0-.08,0-.12a.29.29,0,0,1,0,.09c0,.19,0,.39-.07.63C921.24,62.24,921.27,62,921.29,61.84Z"/><path class="cls-1" d="M847.16,104.54c-21.8,1.88-39.93,50.83-37.69,77.11.6,7,1.81,11.85,3.69,14.72,1.7,2.6,3.93,3.63,7.2,3.35,9.67-.84,21.71-20.37,28-45.44l.83-4.13L857,108.49a9.9,9.9,0,0,0-8.39-4A13.86,13.86,0,0,0,847.16,104.54Z"/><path class="cls-1" d="M506.72,124.92a110.94,110.94,0,0,0,18.53-33.83c2.33-7.32,6.23-19.57.82-25.4a6.1,6.1,0,0,0-2.87-2,4.24,4.24,0,0,0-1.07-.13c-9.85,0-26.53,30.56-35.08,52.16a191.75,191.75,0,0,0-10,34.55,87.26,87.26,0,0,0,9.3-5.57A96.68,96.68,0,0,0,506.72,124.92Z"/><path class="cls-1" d="M921.32,61.59c.09-.56.16-1.57,0-.12,0,.08,0,.17,0,.25A.59.59,0,0,0,921.32,61.59Z"/><path class="cls-1" d="M439.81,149.63c.09,0-.7-.3-1-.42A5.7,5.7,0,0,0,439.81,149.63Z"/><path class="cls-1" d="M953.93,186.8c.21-1.14-.11.16-.14.69v.07C953.84,187.31,953.89,187.06,953.93,186.8Z"/><path class="cls-1" d="M561.81,88.63a1.71,1.71,0,0,0-.08.55C561.77,88.92,561.82,88.61,561.81,88.63Z"/><path class="cls-1" d="M954,182.23c0-.7-.09-1.4-.17-2.09,0-.07,0-.19,0-.33l0-.34c-.27-1.68-.63-3.36-1.05-5a93,93,0,0,0-4.18-12.39c-.07-.17-.52-1.28-.16-.38s-.08-.18-.18-.41-.23-.53-.35-.79q-.79.49-1.56,1c-.36.25-.71.51-1.06.77l0,0a19.89,19.89,0,0,0-1.51,1.39c-.67.69-1.3,1.4-1.92,2.14l-.13.16c-.21.38-.56.74-.8,1.09a43,43,0,0,0-3.14,5.26c-.27.53-.53,1.06-.77,1.6l-.12.26c-.28.94-.71,1.86-1,2.79-.6,1.88-.8,3.86-1.32,5.73,0,.16,0,.33,0,.49,0,.43,0,.85-.07,1.28a29.18,29.18,0,0,0,.06,3c0,.1,0,.3,0,.48.07.37.13.74.22,1.11a23.07,23.07,0,0,0,.75,2.58l0,.12a.43.43,0,0,0,0,.07c.21.39.39.78.61,1.16.41.74.88,1.42,1.35,2.12l.33.39c.28.32.57.63.86.93s.71.7,1.08,1l.17.14c.75.45,1.53.87,2.28,1.32l.24.08c.35.11.71.18,1.06.26h.83a13.69,13.69,0,0,1,2-.54h0c.37-.2.73-.41,1.08-.64l.54-.38.23-.19a22.92,22.92,0,0,0,1.64-1.63c.22-.24.44-.49.65-.75l.22-.26.22-.27c.22-.24,0,0-.22.27l-.15.19-.06.07c-.17.21-.3.38-.25.37.54-.15,1.4-2,1.69-2.53s.59-1.07.85-1.62c.11-.29.22-.59.32-.89a22.1,22.1,0,0,0,.72-2.77s0-.07,0-.1v-.08c0-.41.17-1.32.18-1.49A29.63,29.63,0,0,0,954,182.23Z"/><path class="cls-1" d="M953.8,187.59v0h0S953.79,187.58,953.8,187.59Z"/><path class="cls-2" d="M921.32,61.47c0,.1,0,.22,0,.34a.29.29,0,0,1,0-.09C921.31,61.64,921.31,61.56,921.32,61.47Z"/><path class="cls-2" d="M950.88,194.59a2.88,2.88,0,0,0-.22.27C950.9,194.57,951.1,194.35,950.88,194.59Z"/><path class="cls-2" d="M953.8,187.56v-.07a.08.08,0,0,0,0,.07Z"/><path class="cls-2" d="M950.66,194.86l-.22.26.06-.07Z"/><path class="cls-3" d="M998,168.71a44.91,44.91,0,0,0-7.84-13.87,36.75,36.75,0,0,0-24.11-13.09,34.15,34.15,0,0,0-11.22.53,44.23,44.23,0,0,0-13.28,5.22l-.13.08A41.13,41.13,0,0,0,928.34,160c-5.23,7.57-8.71,17.31-8.3,26.61.44,9.77,5.51,19.72,14.33,24.44,4.72,2.53,10.48,3.45,15.61,1.6a24.69,24.69,0,0,0,10.54-7.34,31.58,31.58,0,0,0,6.71-12.4c1.61-6.13,1.2-12.48,0-18.64a88.6,88.6,0,0,0-5.91-18.39c.44,0,.87,0,1.31,0s1,0,1.56.06l.95.09.59.1c.63.12,1.26.27,1.88.43.94.25,1.85.58,2.77.91l.52.21c.51.24,1,.5,1.51.78.78.43,1.53.89,2.27,1.39.31.21.61.47.93.67a2.75,2.75,0,0,1,.26.22,32.12,32.12,0,0,1,3.59,3.6l.57.7c.41.57.81,1.15,1.19,1.74a37.89,37.89,0,0,1,1.93,3.39c.21.41.41.83.6,1.25s.29.73.41,1.11c1.21,3.55,5,6.27,8.8,5C996.54,176.41,999.32,172.52,998,168.71Zm-44.1,18.09c0,.25-.09.51-.14.76v0s0,.07,0,.1a24,24,0,0,1-.72,2.77c-.1.3-.21.59-.32.89-.26.55-.54,1.1-.85,1.62s-1.16,2.39-1.69,2.53c-.05,0,.08-.16.25-.37l-.65.75a21,21,0,0,1-1.64,1.63s-.13.12-.23.19l-.54.38c-.35.23-.71.44-1.08.64h0a13.13,13.13,0,0,0-2,.54h-.83c-.36-.08-.71-.15-1.06-.26l-.24-.08c-.75-.45-1.53-.86-2.28-1.32l-.17-.14c-.37-.33-.73-.67-1.08-1s-.58-.61-.86-.93l-.33-.39c-.47-.7-.94-1.38-1.35-2.12-.21-.38-.4-.78-.61-1.16a.25.25,0,0,0,0-.07.54.54,0,0,1,0-.12,21.13,21.13,0,0,1-.75-2.58c-.08-.37-.15-.74-.22-1.11,0-.18-.05-.39-.05-.48a29.18,29.18,0,0,1-.06-3c0-.43,0-.86.07-1.28,0-.16,0-.33,0-.49.53-1.87.72-3.85,1.32-5.73.3-.94.73-1.85,1-2.79l.12-.26c.25-.54.5-1.07.77-1.6a46.51,46.51,0,0,1,3.14-5.26c.24-.35.59-.71.8-1.09l.13-.16c.61-.74,1.25-1.45,1.92-2.14a19.89,19.89,0,0,1,1.51-1.39l0,0c.35-.26.7-.52,1.06-.77s1-.69,1.56-1c.12.26.24.53.35.79s.55,1.33.18.41.09.21.16.38a93,93,0,0,1,4.18,12.39q.63,2.48,1,5l0,.34c0,.13,0,.26,0,.33.07.7.13,1.39.17,2.09a31.61,31.61,0,0,1,0,3.77c0,.17-.17,1.08-.18,1.49C953.82,187,954.14,185.66,953.93,186.8Z"/><path class="cls-3" d="M921.12,122c.46-1.77.9-3.56,1.33-5.34q2.85,4.23,5.71,8.67,5.83,9.1,10.84,17.88a57.89,57.89,0,0,1,5.5-2.35,60.32,60.32,0,0,1,8.27-2.39c-14-22.14-24.2-38.36-24.64-39l-.59-.88-.59-.88c.2-.82.39-1.64.6-2.45,1.88-7.34,4-14.61,5.85-22,1.19-4.65,2.47-9.61,2.32-14.45a18.79,18.79,0,0,0-5-12.5,18.38,18.38,0,0,0-12.85-6.08c-5-.1-9.84,2.55-13.22,6.16-5.54,5.91-7.21,14-7.2,22,0,6.15,2.08,11.5,4.91,16.87,1.87,3.56,4,7,6.14,10.38,2-6.36,3.15-13.51,5.08-19.91-.18-.37-.36-.73-.52-1.1,0-.08-.15-.42-.25-.65a23.1,23.1,0,0,1-.84-2.68l0-.15c0-.53-.14-1.09-.16-1.6a39.67,39.67,0,0,1,.19-5.34c0-.11,0-.22,0-.33,0-.34.1-.67.17-1a30.52,30.52,0,0,1,.71-3c.11-.37.25-.74.37-1.11v0c.28-.52.58-1,.9-1.5a17.74,17.74,0,0,1,1.39-1.48c.07-.07.26-.23.44-.37l.34-.23a6.48,6.48,0,0,1,.64-.34l.58-.2.26,0a4.55,4.55,0,0,0,.87.27l.28.14c.15.09.54.38.75.52.36.33.68.68,1,1,.13.2.27.4.39.61l.06.12a1,1,0,0,1,.06.19c.07.25.13.51.18.76a20.55,20.55,0,0,1,0,2.22c0,.33,0,.66-.08,1,.16-1.45.09-.44,0,.12a.59.59,0,0,0,0,.13s0,.08,0,.12c0,.2,0,.41-.07.61,0-.24,0-.45.07-.63a160.07,160.07,0,0,1-4.07,16.6c-.25.91-.49,1.82-.73,2.73l-.06-.1c0,.13,0,.26,0,.4q-1.24,4.65-2.45,9.31t-2.38,9.57c-.42,1.75-.84,3.5-1.24,5.25-2.13,9.28-4.47,18.47-7.37,27.54q-2,6.21-4.24,12.34c0,.15-.09.3-.13.45l-.11.29c-10.37,30.18-22.61,48.73-32.74,49.6-3.34.28-6.51-.49-7.16-8.05-.39-4.52.29-11.14,2.18-21.44L866,139.89c.78-4.14,1.52-8.3,2.24-12.32,2.48-13.92,4.81-27.06,8.51-37.76a11,11,0,0,0,.7-4.2,3.23,3.23,0,0,0-1.26-2.44,4.19,4.19,0,0,0-3.53-.48l-8.15,2.14a5,5,0,0,0-3.92,4.25l-1,5.42A17.93,17.93,0,0,0,846,90.74c-14.31,1.24-28.4,13.81-38.67,34.51a128.12,128.12,0,0,0-10.05,28.58c-1.39-.08-2.71.37-3.56,2.55l-1.91,5.7c-7.52,22.58-17.15,45.84-31.52,47.08-5.5.47-8.11-2.33-8.71-9.36-.35-4.09.15-9.91,1.54-17.79L760,144.85a80.32,80.32,0,0,0,1.41-20.46c-.64-7.44-2.94-12.94-6.85-16.34-3.6-3.13-8.47-4.45-14.49-3.93-7.49.65-14,4.23-19.75,10.92l1.84-9.72,2.89-17-1.75.07-3.79.13c-2.18.06-4.4.11-6.61.13h-1.14l-9.95,48.42-6.73,37h0l-.54,3a78.06,78.06,0,0,1-6.22,18.67c-2.86,5.92-7.18,14.86-13.07,15.41a5.4,5.4,0,0,1-3.78-.84c-1.38-1-2.16-3.14-2.37-6.46-.28-4.49.49-11.19,2.6-22.38l6.62-35,.54-2.66A65.14,65.14,0,0,0,680.43,126c-.88-13.87-8.08-18.49-14-19.92a23.16,23.16,0,0,0-7.15-.57A29.22,29.22,0,0,0,645.74,110a28.71,28.71,0,0,0-5.18,4.22c.11-.67.19-1.33.28-2l.15-.12,0-.61.08-.68-.16-.12c-.33-3-1.37-6.6-4.39-8.31h0a9.42,9.42,0,0,0-7-.38c-3.89,1.12-5.76,4.7-6.69,6.48-7.79,14.86-10.3,19.66-10.72,20.68s-3,6-15,32.37l-.09-.3-1.49,3.77c-2.13,4.69-4,8.74-5.42,12.84-.83,1.85-1.66,3.69-2.52,5.51-5.37,11.41-7.94,16.7-12.73,22.67-1.82,2.26-11.35,13.58-20.47,14a7.68,7.68,0,0,1-5.24-1.28c-1.35-1.09-2.17-2.91-2.45-5.42-.62-5.57.66-10.15,2.6-17.09.35-1.25.72-2.58,1.1-4l4.09-14.34c.8-2.85,1.55-5.63,2.3-8.39,2.57-9.51,5-18.5,9.15-28.81a6.69,6.69,0,0,0,.28-4.92l0-.09c-.74-2-2.09-2.15-4-1.83l-7.91,1.44a4.71,4.71,0,0,0-3.91,3.42l-6.79,26.39-.19.55c-11.69,26.87-23.23,42.83-29.56,48.34a38.46,38.46,0,0,1-13.88,7.58h0c-2.42.62-4.52,1.16-7,.62-5.4-1.17-8.48-6.5-11-10.79-4.28-7.42-5.34-14.48-6.46-22-.79-5.27-1-10.26-1-10.32-.08-1.51-.08-3.77-.09-8.31v-2.1a4,4,0,0,0,.19-1.34,10.3,10.3,0,0,1,.34-2.06,106.36,106.36,0,0,0,20.83-12.12c5.93-4.42,17.54-14.51,28.71-32.35,14.89-23.78,22-50.2,16.55-61.46-3.58-7.39-9.19-9.86-9.42-10a18.13,18.13,0,0,0-7.2-1.25C513.1,48.61,502,61.9,499.89,64.56A196.56,196.56,0,0,0,471,115.8c-5.45,14.21-9.05,27.62-10.43,38.78a115.6,115.6,0,0,0-.91,23.46c1,14.14,5.5,47.9,26.41,55.87a26.54,26.54,0,0,0,9.44,1.69c1,0,1.84,0,2.39-.09,13.37-.88,25.45-11.67,35.09-24.19a32.05,32.05,0,0,0,.19,3.57c1.16,10.41,8.14,16,19.74,16,.83,0,1.69,0,2.57-.09,18-1.19,30.31-13,43.94-42.18l4-8.6h0c.6-1.13,1-2.08,1.36-2.77l.15-.32c5.46-11.59,11.57-26.19,13.6-31.07l-14.77,75.88a3.83,3.83,0,0,0,.45,3.2,3.48,3.48,0,0,0,2.65,1.29l6,.58.54,0a3.69,3.69,0,0,0,3.93-3.27l11.1-55c4.56-22.29,14.69-48.63,28.23-49.49,5.78-.37,8.81,3.14,9.29,10.71a51.62,51.62,0,0,1-1.44,14.1L658,177.3c-1.8,9.23-3.57,19.82-3,28.41.47,7.38,2.58,12.48,6.47,15.61,3.32,2.67,7.67,3.78,12.91,3.32A22.12,22.12,0,0,0,687,218.83l-.43,2.37a3.86,3.86,0,0,0,.52,3.19,3.45,3.45,0,0,0,2.64,1.23l6.48.87h.51a3.71,3.71,0,0,0,4-3.36L714,149.6l0-.19,0-.18c3.74-13.78,11-30.32,24.6-31.49,4.73-.41,7.45,3.08,8.08,10.38a59.14,59.14,0,0,1-.87,14.37l-7,38.61a77.48,77.48,0,0,0-1.23,19.72c.63,7.39,2.77,13,6.36,16.77,3.82,4,9.15,5.7,15.84,5.11,13.9-1.2,25.53-12,35.79-33.49,2.67,16,10.19,24.14,22.43,24.14.84,0,1.7,0,2.59-.12,9.06-.78,18-8.34,24.55-20.5.82,5.91,2.77,10.19,5.9,13,3.3,3,7.91,4.2,13.72,3.69a31.1,31.1,0,0,0,4.72-.91c15.93-4.29,29.36-22.4,41.06-55.36l.34-1a8.9,8.9,0,0,0,1.66-2.81C915.8,140.31,918.71,131.2,921.12,122ZM857,108.49l-7.75,41.66-.83,4.13c-6.31,25.07-18.35,44.6-28,45.44-3.27.28-5.5-.75-7.2-3.35-1.88-2.88-3.09-7.69-3.69-14.72-2.25-26.28,15.89-75.22,37.69-77.11.49,0,1-.06,1.42-.06A9.86,9.86,0,0,1,857,108.49ZM477.05,150.23a191.75,191.75,0,0,1,10-34.55c8.54-21.61,25.22-52.16,35.08-52.16a4.29,4.29,0,0,1,1.07.13,6.1,6.1,0,0,1,2.87,2.05c5.41,5.83,1.51,18.08-.82,25.4a111.18,111.18,0,0,1-18.53,33.83,97.3,97.3,0,0,1-20.38,19.74A88.88,88.88,0,0,1,477.05,150.23Z"/><path class="cls-2" d="M406.81,106.92c-.13-1.34-.06-.48,0,0Z"/><path class="cls-2" d="M439.81,149.63a4.81,4.81,0,0,1-1-.42C439.11,149.33,439.9,149.65,439.81,149.63Z"/><path class="cls-3" d="M562.12,117.75a6.51,6.51,0,0,0,5,.66,6.68,6.68,0,0,0,3.92-3c1.7-3.23.73-6.32-1.76-8.53.25.2.41.31.13.07l-.63-.53c-.47-.4-.92-.82-1.36-1.25s-1-1-1.51-1.61c-.22-.25-.43-.59-.67-.85l-.22-.31a26.46,26.46,0,0,1-1.47-2.45c-.19-.35-.36-.71-.53-1.07,0,0-.23-.56-.27-.67a23.61,23.61,0,0,1-.95-3.41c-.05-.26-.09-.53-.14-.79-.17-.78,0,.42,0,.45a7.53,7.53,0,0,1-.14-2,25.36,25.36,0,0,1,.08-2.89s0-.11,0-.24a.06.06,0,0,1,0,0c.1-.49.17-1,.28-1.49A33.94,33.94,0,0,1,563.44,83l.21-.46c.22-.46.44-.92.68-1.38.86-1.69,2-3.15,3-4.77l.19-.23c.28-.33.56-.65.85-1,.65-.72,1.34-1.41,2-2.07s1.25-1.07,1.87-1.62l1-.71a46.94,46.94,0,0,1,6.82-3.9l1.19-.55.19-.08.3-.12c1.1-.43,2.23-.82,3.36-1.17s2.26-.63,3.4-.88c.57-.12,1.15-.23,1.72-.33l.62-.1a73.34,73.34,0,0,1,15,.13l1.52.19h0l1.11.17c1.42.22,2.84.46,4.25.72,3.11.57,6.2,1.22,9.28,1.91,16.07,3.59,32,7.76,48.15,11,9.5,1.88,19,3.51,28.64,4.74A160.07,160.07,0,0,0,718.19,84c8.62,0,17-1.14,24.93-4.75A60.3,60.3,0,0,0,764,63c9.88-12,15.66-29.64,9.34-44.68A32.25,32.25,0,0,0,760.79,3.28a23.49,23.49,0,0,0-25.35.91,26.15,26.15,0,0,0-7.37,7.45A35.1,35.1,0,0,0,723.82,23c-3.83,17.08-5.17,25.57-5.17,25.57-1.09,6.63-2,12.34-2.72,16.8a21.08,21.08,0,0,0,4.62,1,20.67,20.67,0,0,0,8.53-1c2.16-11.27,3.58-19.15,4.53-25,.76-4.66,1.81-9.28,2.85-13.89a45.91,45.91,0,0,1,1.49-5.4c0-.1.14-.38.23-.6l.17-.37a20,20,0,0,1,1.34-2.28c.26-.26.49-.57.75-.83s.8-.79,1.23-1.16a.18.18,0,0,1,.07,0c.55-.38,1.1-.76,1.68-1.09.31-.18.62-.35.94-.51l.55-.26.6-.22c.47-.16,1-.29,1.44-.41l.76-.14.91-.06c.5,0,1,0,1.48,0h.07l.1,0a18.68,18.68,0,0,1,2.43.69c.38.21.77.4,1.15.62.57.33,1.1.75,1.65,1.11l.1.08c.3.26.59.53.88.8.5.48,1,1,1.43,1.5.17.19.34.39.5.59.44.64.9,1.27,1.31,1.93s.72,1.19,1,1.8a5.39,5.39,0,0,1,.69,1.43s-.4-1.11-.17-.38c.13.4.29.79.42,1.19a25.2,25.2,0,0,1,.74,2.84c.08.37.08.87.2,1.25l.06.65a33,33,0,0,1-.06,5.35c0,.27,0,.54-.08.8-.11.64-.21,1.28-.34,1.91-.28,1.38-.59,2.76-1,4.11-.24.83-.52,1.64-.81,2.45-.06.16-.27.68-.37,1l-.26.58A41.35,41.35,0,0,1,757.27,50c-.45.72-.92,1.43-1.41,2.12-.22.31-.44.62-.67.92l0,0a60.84,60.84,0,0,1-6.31,6.63c-.51.46-1,.91-1.56,1.34l-.7.57c-.84.61-1.66,1.24-2.52,1.83a52,52,0,0,1-7.41,4.28l-.45.2-.08,0q-1,.41-2.1.75A41.21,41.21,0,0,1,729.26,70c-.44.09-.89.17-1.34.24l-.62.09-.75.09c-.52.06-1,.1-1.56.14-2.41.19-4.83.25-7.24.23a162.64,162.64,0,0,1-19.21-1.5l-.86-.11-.58-.08-3.34-.49c-2.22-.34-4.43-.69-6.65-1.07q-7.33-1.24-14.62-2.71C656.65,61.63,641,57.54,625.26,54c-11-2.45-22.64-4.88-34-3.61s-22.8,6-31.07,14.22a40.65,40.65,0,0,0-10.73,19,32.49,32.49,0,0,0,6.22,28A33.13,33.13,0,0,0,562.12,117.75Zm-.39-28.58a1.76,1.76,0,0,1,.08-.55S561.77,88.92,561.73,89.17Z"/><path class="cls-3" d="M357.17,293.5a14.89,14.89,0,0,1-6.15,5.82,20,20,0,0,1-8.27,2,17.81,17.81,0,0,1-7.08-1.09,15.79,15.79,0,0,1-5.55-3.54,16.29,16.29,0,0,1-3.67-5.56,20.9,20.9,0,0,1-1.46-7.22,19.48,19.48,0,0,1,1-7.12,17,17,0,0,1,3.33-5.76,16.44,16.44,0,0,1,5.23-3.94,16.73,16.73,0,0,1,6.77-1.6,16.27,16.27,0,0,1,6.9,1.13,15.09,15.09,0,0,1,5.11,3.44,15.42,15.42,0,0,1,3.22,5,17,17,0,0,1,1.22,5.79l.1,3.1-28.45,1a15,15,0,0,0,.67,3.56,12.77,12.77,0,0,0,6.2,7.57,12.14,12.14,0,0,0,6.39,1.26,14.15,14.15,0,0,0,6.47-1.84,11.72,11.72,0,0,0,4.69-4.59Zm-3.82-13.37a10,10,0,0,0-1.06-4.24,11.52,11.52,0,0,0-2.61-3.42,11.88,11.88,0,0,0-3.82-2.27,12.09,12.09,0,0,0-4.61-.73,11.16,11.16,0,0,0-5.93,1.68,13,13,0,0,0-3.66,3.52,13.34,13.34,0,0,0-1.85,3.79,9.69,9.69,0,0,0-.5,2.49Z"/><path class="cls-3" d="M430.19,292.42a15.85,15.85,0,0,1-5.5,4.65,16.22,16.22,0,0,1-6.77,1.67,19.05,19.05,0,0,1-7.23-1.08,16.24,16.24,0,0,1-5.77-3.53,17.17,17.17,0,0,1-3.86-5.55,19.22,19.22,0,0,1-1.56-7.14,19,19,0,0,1,1.08-7.23,17.07,17.07,0,0,1,3.48-5.8,16.32,16.32,0,0,1,5.52-3.91,19.12,19.12,0,0,1,7.14-1.57,15.72,15.72,0,0,1,7,1.31,18.3,18.3,0,0,1,5.83,4.15l-3.43,2.77a15.34,15.34,0,0,0-4.29-3.21,10.23,10.23,0,0,0-4.95-1.05,13.56,13.56,0,0,0-5.54,1.3,12.63,12.63,0,0,0-6.68,7.64,16.52,16.52,0,0,0,.37,10.84,12.66,12.66,0,0,0,2.83,4.33,13.07,13.07,0,0,0,4.35,2.84,13.63,13.63,0,0,0,5.61.91,10.25,10.25,0,0,0,5.05-1.46,13.41,13.41,0,0,0,3.88-3.56Z"/><path class="cls-3" d="M470.43,281.75c.06,1.67.12,3.17.19,4.5s.15,2.55.24,3.68.18,2.18.29,3.16.25,2,.43,2.94l-4.11.14a32.25,32.25,0,0,1-.63-5.51h-.15a12.42,12.42,0,0,1-4.57,5,14.74,14.74,0,0,1-7.1,1.79,17,17,0,0,1-4.34-.4,11.34,11.34,0,0,1-3.87-1.64,9.59,9.59,0,0,1-2.86-3,9.45,9.45,0,0,1-1.22-4.61,9.13,9.13,0,0,1,1.77-6.26,12.22,12.22,0,0,1,4.76-3.59,22.71,22.71,0,0,1,6.11-1.68c2.17-.29,4.08-.47,5.75-.53l5.13-.17-.07-2.06q-.15-4.42-2.93-6.25a11.46,11.46,0,0,0-6.88-1.68,15.4,15.4,0,0,0-10.21,4.19l-2.67-2.94a15.58,15.58,0,0,1,5.89-3.78,21.42,21.42,0,0,1,6.85-1.45q6.16-.21,9.92,2.58t4,9.27Zm-8.9-2.51a38.73,38.73,0,0,0-5.38.55,19.21,19.21,0,0,0-4.65,1.41,8.83,8.83,0,0,0-3.26,2.47,6,6,0,0,0-.33,6.47,6,6,0,0,0,1.86,1.93,8.42,8.42,0,0,0,2.5,1.1,9.55,9.55,0,0,0,2.76.31,14.06,14.06,0,0,0,5.76-1.23,10,10,0,0,0,3.54-2.81,9.3,9.3,0,0,0,1.74-3.82,18,18,0,0,0,.37-4.26l-.08-2.29Z"/><path class="cls-3" d="M487.87,261.37l4.4-.15.2,6h.15a11.65,11.65,0,0,1,2.46-3.15,15.66,15.66,0,0,1,3.26-2.25,16.21,16.21,0,0,1,3.73-1.38,20.24,20.24,0,0,1,3.87-.54,18.75,18.75,0,0,1,7.19,1.08,16.61,16.61,0,0,1,9.66,9.08,19.22,19.22,0,0,1,1.56,7.14,18.93,18.93,0,0,1-1.08,7.23,16.68,16.68,0,0,1-9,9.72,18.84,18.84,0,0,1-7.11,1.57,20,20,0,0,1-3.9-.27,16.63,16.63,0,0,1-3.82-1.12,15.48,15.48,0,0,1-3.41-2,11.32,11.32,0,0,1-2.67-3h-.15l.77,22.78-4.4.15Zm4.54,16.9a13.42,13.42,0,0,0,1.28,5.38,13.78,13.78,0,0,0,3.16,4.32,14.46,14.46,0,0,0,4.57,2.83,14.09,14.09,0,0,0,5.61.92,13.56,13.56,0,0,0,5.54-1.3,12.63,12.63,0,0,0,6.68-7.64,16.52,16.52,0,0,0-.37-10.84,12.56,12.56,0,0,0-2.83-4.33,13.07,13.07,0,0,0-4.35-2.84,13.47,13.47,0,0,0-5.61-.91,14.08,14.08,0,0,0-5.54,1.29,14.44,14.44,0,0,0-4.37,3.14,13.9,13.9,0,0,0-2.86,4.53A13.45,13.45,0,0,0,492.41,278.27Z"/><path class="cls-3" d="M568,278.42c.06,1.67.12,3.17.19,4.5s.15,2.55.24,3.68.18,2.18.29,3.16.25,2,.43,2.94l-4.11.14a32.25,32.25,0,0,1-.63-5.51h-.15a12.48,12.48,0,0,1-4.57,5,14.74,14.74,0,0,1-7.1,1.79,17.55,17.55,0,0,1-4.34-.4,11.34,11.34,0,0,1-3.87-1.64,9.13,9.13,0,0,1-4.07-7.65,9.13,9.13,0,0,1,1.77-6.26,12.22,12.22,0,0,1,4.76-3.59,22.71,22.71,0,0,1,6.11-1.68,57.33,57.33,0,0,1,5.75-.53l5.13-.17-.07-2.06q-.15-4.43-2.93-6.25a11.46,11.46,0,0,0-6.88-1.68,15.4,15.4,0,0,0-10.21,4.19L541,263.5a15.58,15.58,0,0,1,5.89-3.78,21.42,21.42,0,0,1,6.85-1.45q6.16-.21,9.92,2.58t4,9.27Zm-8.9-2.5a38.73,38.73,0,0,0-5.38.55,19.21,19.21,0,0,0-4.65,1.41,8.83,8.83,0,0,0-3.26,2.47,6,6,0,0,0-.33,6.47,6,6,0,0,0,1.86,1.93,8.42,8.42,0,0,0,2.5,1.1,9.55,9.55,0,0,0,2.76.31,14.06,14.06,0,0,0,5.76-1.23,10,10,0,0,0,3.54-2.81,9.3,9.3,0,0,0,1.74-3.82A18,18,0,0,0,564,278l-.08-2.29Z"/><path class="cls-3" d="M587.28,283.37a9.52,9.52,0,0,0,4.25,4,12,12,0,0,0,5.77,1.24,9,9,0,0,0,2.77-.54,8.4,8.4,0,0,0,2.45-1.34,6.78,6.78,0,0,0,1.73-2,5,5,0,0,0,.61-2.64,4.24,4.24,0,0,0-1.62-3.49,11.31,11.31,0,0,0-3.77-1.72,44.71,44.71,0,0,0-4.88-1,20.87,20.87,0,0,1-4.89-1.31,10.32,10.32,0,0,1-3.8-2.64,7.51,7.51,0,0,1-1.67-5,8.78,8.78,0,0,1,.88-4.38,9.51,9.51,0,0,1,2.57-3.15,11.56,11.56,0,0,1,3.64-1.93,15.08,15.08,0,0,1,4.16-.73,15.89,15.89,0,0,1,7.28,1.3,10.71,10.71,0,0,1,4.89,4.7l-3.88,2.49a9.32,9.32,0,0,0-3.24-3.47,8.77,8.77,0,0,0-4.92-1,9.15,9.15,0,0,0-2.44.45,8.42,8.42,0,0,0-2.27,1.11,6.06,6.06,0,0,0-1.67,1.75,4.14,4.14,0,0,0-.62,2.38,3.93,3.93,0,0,0,1.62,3.34,11.67,11.67,0,0,0,3.76,1.61,43.11,43.11,0,0,0,4.88.9,19.92,19.92,0,0,1,4.89,1.27,9.89,9.89,0,0,1,3.8,2.75,8.34,8.34,0,0,1,1.68,5.29,10.14,10.14,0,0,1-.83,4.64,9.55,9.55,0,0,1-2.6,3.37,12.06,12.06,0,0,1-3.86,2.12,15.8,15.8,0,0,1-4.6.82,18.74,18.74,0,0,1-8.09-1.42,12.24,12.24,0,0,1-5.79-5Z"/><path class="cls-4" d="M64.17,225.94v-.07A.17.17,0,0,0,64.17,225.94Z"/><path class="cls-2" d="M63.74,243.63l-.21,0C63.66,243.63,64.29,243.74,63.74,243.63Z"/><path class="cls-2" d="M51.67,240.28h0Z"/><path class="cls-2" d="M21.55,199.87c.13,1,.07.52,0,.1a.44.44,0,0,0,0-.1C21.51,199.59,21.39,198.63,21.55,199.87Z"/><path class="cls-2" d="M33,225.81l0-.08c-.11-.14-.22-.29-.34-.43C32.14,224.78,33,225.82,33,225.81Z"/><path class="cls-2" d="M90.48,239.9l-.34.15C90.22,240,91,239.71,90.48,239.9Z"/><path class="cls-2" d="M25.06,212.08Z"/><path class="cls-2" d="M113.43,220.73l-.11.14Z"/><path class="cls-2" d="M101.86,233.31a2.19,2.19,0,0,1-.35.27C101.82,233.4,102.23,233.06,101.86,233.31Z"/><path class="cls-2" d="M21.65,184.89l-.09.53C21.58,185.24,21.62,185.07,21.65,184.89Z"/><path class="cls-2" d="M77.07,243.6l-.3.05Z"/><path class="cls-2" d="M41.77,234.55a4.12,4.12,0,0,1-.41-.32C40.83,233.86,41.76,234.54,41.77,234.55Z"/><path class="cls-2" d="M264.05,191.91s0-.09,0-.14a2.17,2.17,0,0,0,0-.25C263.86,190.56,264.26,193.59,264.05,191.91Z"/><path class="cls-2" d="M266.76,203.25a.36.36,0,0,0,0,.09h0l.16.3c-.05-.11-.12-.25-.19-.42l0,0Z"/><path class="cls-2" d="M266.77,203.24l0-.08a.2.2,0,0,0,0,.08Z"/><path class="cls-1" d="M113.43,220.73l-.11.14Z"/><path class="cls-1" d="M99.74,100.58l.13-.2,0,0C99.82,100.46,99.78,100.51,99.74,100.58Z"/><path class="cls-1" d="M105.24,81.08c0-.28-.08-.6-.11-.77s0-.11,0,0,0,.21.08.44c-.2-1.08-.37-2.16-.62-3.24s-.49-1.89-.78-2.82l-.82.06-.95.11-.1,0c-1.42.24-2.83.52-4.22.9-.69.19-1.37.4-2,.64l-.78.29a31,31,0,0,0-3.34,1.84l-.68.47c-.39.35-.78.68-1.16,1-.8.76-1.58,1.54-2.32,2.36-.51.56-1,1.16-1.48,1.73l-.72,1c-.53.79-1,1.6-1.5,2.44-.26.47-.5,1-.74,1.44l-.15.32c-.33,1-.69,1.95-.93,3-.12.49-.19,1-.3,1.49.24-1.11,0-.18,0,.4a30.26,30.26,0,0,0,.09,3.69c.06.33.12.65.19,1a23.6,23.6,0,0,0,.67,2.32c.06.16.28.54.27.54.17.32.34.65.53,1,.31.51.83,1,.12.27.39.43.76.87,1.19,1.27l.43.37.28.19,1.15.64s.55.24.86.33c.47.14.94.24,1.41.35l.13,0H89c.35,0,.7,0,1,0s.93,0,1.4,0h0l.24-.07c.4-.1.81-.2,1.2-.32l.47-.15c-.16.07-.34.21.12,0h0l.08,0,.47-.24A24,24,0,0,0,96.27,104l0,0,.85-.74q1-.92,1.89-1.92c.25-.28.49-.56.73-.85l0,0c0-.07.08-.12.12-.18.65-1,1.42-2,2-3,.52-.88,1-1.78,1.47-2.7.09-.18.18-.37.26-.56.35-1,.68-2,.94-3a10.54,10.54,0,0,0,.65-3c0,.33-.14.87-.07.07l.06-.74c0-.49.06-1,.08-1.48,0-1,0-2,0-3A14.55,14.55,0,0,0,105.24,81.08Z"/><path class="cls-1" d="M273.34,117.76c1.17.55,4.35-8.26,10.43-22.13h0a.17.17,0,0,0,0,0c.55-1.26,1.13-2.56,1.73-3.9.42-1,.84-1.86,1.25-2.77,0,0,0,0,0,0l0-.09c.5-1.1,1-2.17,1.47-3.2l.61-1.32,1.42-3,.06-.12h0c6.79-14.41,10.82-22.08,8.7-25.51a4.22,4.22,0,0,0-4.42-1.88c-2.57.78-4.13,5.27-4.91,4.78-.18-.11-.18-.4-.27-1a10.38,10.38,0,0,0-2.06-5,3.58,3.58,0,0,0-3-1.33c-1.5.28-2.49,2-2.87,2.62-2.9,4.95-3.7,18.28-4.92,30.48l1.61-.25c1.56-.26,3.12-.57,4.67-.91s2.95-.7,4.41-1.11a120.67,120.67,0,0,0-6.5,14.18c-1.87.33-3.76.59-5.66.81-.28,2.32-.6,5.1-1,8.48C272.94,116.05,272.89,117.55,273.34,117.76Z"/><path class="cls-1" d="M124.68,75.61l.11,0h0Z"/><path class="cls-1" d="M53.46,170.18c.58,0,.29,0,0,0Z"/><path class="cls-1" d="M90.48,239.9l-.34.15C90.22,240,91,239.71,90.48,239.9Z"/><path class="cls-1" d="M100,100.22l-.1.15C100.26,99.9,100.21,99.88,100,100.22Z"/><path class="cls-1" d="M63.74,243.63l-.21,0C63.66,243.63,64.29,243.74,63.74,243.63Z"/><path class="cls-1" d="M41.77,234.55a4.12,4.12,0,0,1-.41-.32C40.83,233.86,41.76,234.54,41.77,234.55Z"/><path class="cls-1" d="M57.08,169.16c.35-.13.17-.07,0,0Z"/><path class="cls-1" d="M77.07,243.6l-.3.05Z"/><path class="cls-1" d="M101.86,233.31a2.19,2.19,0,0,1-.35.27C101.82,233.4,102.23,233.06,101.86,233.31Z"/><path class="cls-1" d="M33,225.81l0-.08c-.11-.14-.22-.29-.34-.43C32.14,224.78,33,225.82,33,225.81Z"/><path class="cls-1" d="M21.65,184.89l-.09.53C21.58,185.24,21.62,185.07,21.65,184.89Z"/><path class="cls-1" d="M21.55,199.87c.13,1,.07.52,0,.1a.44.44,0,0,0,0-.1C21.51,199.59,21.39,198.63,21.55,199.87Z"/><path class="cls-1" d="M102.68,71.42s0,0,0,0a.61.61,0,0,1,0-.12A.42.42,0,0,0,102.68,71.42Z"/><path class="cls-1" d="M31.17,161.94l0,0h0l.21-.22h0Z"/><path class="cls-1" d="M32.8,163.06l.85.7.21.16L34,164l.37.26c.73.52,1.48,1,2.25,1.48s1.71,1,2.59,1.44c.41.21.83.4,1.25.6l.09,0,.14,0c1.42.53,2.83,1.05,4.28,1.47.94.27,1.89.5,2.85.68l1,.16.88.07a26.27,26.27,0,0,0,3.55,0h.14l.75-.14a17.59,17.59,0,0,0,1.73-.45c.39-.12.78-.25,1.16-.4h0l.69-.34c.26-.14.52-.28.77-.43.42-.25.83-.51,1.24-.78.19-.12.37-.25.55-.38a1.15,1.15,0,0,1,.14-.17c.38-.45,1.13-.9,1.49-1.26.51-.5,1-1,1.43-1.56l.2-.29c.23-.34.45-.7.66-1.06s.39-.76.59-1.13l0,0c0-.13.07-.25.08-.3l.42-1.55a1.24,1.24,0,0,1,.06-.2v0c0-.33,0-.65,0-1s0-.92-.06-1.38c0,0,0-.06,0-.09s-.06-.35-.07-.44a21.76,21.76,0,0,0-.73-2.66l0-.09,0,0c-.26-.37-.42-.83-.66-1.22s-1.08-1.37-.28-.51c-.35-.37-.67-.77-1-1.13s-1.17-.86-.25-.29c-.4-.25-.78-.53-1.19-.76l-.82-.43-.2-.12c-.31-.09-.69-.16-.85-.21-.44-.12-.88-.2-1.32-.31l-.12,0a27.52,27.52,0,0,0-2.87-.09c-.44,0-.87,0-1.31.07s-1.54-.07-.66.05l.24,0h0a1.71,1.71,0,0,0-.45,0l-.61.11c-.46.08-.91.18-1.37.28-.72.16-1.44.35-2.16.55-1.16.33-2.3.71-3.43,1.13l-.63.24-.51.2c-1,.48-2,1-3,1.53s-1.89,1.15-2.79,1.79c-.14.1-.78.6-.89.67l-.51.43a41,41,0,0,0-4.07,4.06c-.43.49-.82,1.08-1.26,1.58l-.08.1C31.83,162.19,32.31,162.64,32.8,163.06Z"/><path class="cls-1" d="M31.44,161.66c.13-.17.1-.18-.1.07l0,0Z"/><path class="cls-1" d="M266.76,203.25a.36.36,0,0,0,0,.09h0l.16.3c-.05-.11-.12-.25-.19-.42l0-.08a.3.3,0,0,0,0,.1Z"/><path class="cls-1" d="M436.79,143c0-8.14-3.47-12.1-10.61-12.1-14.51,0-27.89,27.73-32.44,54.24C422.31,182.67,436.79,168.5,436.79,143Z"/><path class="cls-1" d="M60.47,167.1c.7-.49.22-.32-.1,0a.91.91,0,0,0-.13.16A1.88,1.88,0,0,1,60.47,167.1Z"/><path class="cls-1" d="M44.1,151.51Z"/><path class="cls-1" d="M264.05,191.91s0-.09,0-.14a2.17,2.17,0,0,0,0-.25C263.86,190.56,264.26,193.59,264.05,191.91Z"/><path class="cls-1" d="M86,54.12l.33.13A1.07,1.07,0,0,0,86,54.12Z"/><path class="cls-1" d="M60.18,167.33l.06-.07h0Z"/><path class="cls-1" d="M33.71,163.81l.17.12h0Z"/><path class="cls-1" d="M34,164l-.08,0Z"/><path class="cls-2" d="M31.36,161.75l.08-.1-.08.1Z"/><path class="cls-2" d="M53.11,149.07c.19,0,.13,0,0,0Z"/><path class="cls-2" d="M60.24,167.26a.91.91,0,0,1,.13-.16.75.75,0,0,0-.14.17S60.23,167.26,60.24,167.26Z"/><path class="cls-2" d="M33.88,163.93l.08,0-.09-.06Z"/><path class="cls-2" d="M105.13,80.31c0-.11,0-.13,0,0Z"/><path class="cls-2" d="M345.62,40.17l-.06.08a.73.73,0,0,0,.09-.13Z"/><path class="cls-3" d="M15.8,153.86a24.32,24.32,0,0,1,5.44-5.66l-.19-.35c-.69-1.31-1.33-2.64-1.94-4-.25-.56-.48-1.14-.74-1.7.79,1.69.12.29-.17-.46a82.34,82.34,0,0,1-3.95-13.22c-.35-1.68-.65-3.36-.91-5.06,0-.09-.05-.32-.08-.53s-.07-.53-.08-.63c-.11-.9-.2-1.79-.28-2.69a91.3,91.3,0,0,1-.3-11c.06-1.85.18-3.69.37-5.53,0-.52.11-1,.17-1.56,0,0,0-.08,0-.11.16-1,.29-1.92.46-2.88a70.86,70.86,0,0,1,2.95-11.21c.31-.87.67-1.71,1-2.58,0,0,0,0,0,0l.08-.18c.22-.49.44-1,.67-1.47a59.27,59.27,0,0,1,2.84-5.34c1-1.66,2.1-3.24,3.23-4.81l.25-.32c.3-.37.61-.75.92-1.11.73-.86,1.5-1.71,2.28-2.52a55.4,55.4,0,0,1,4.56-4.24l.73-.59.64-.48c.88-.65,1.79-1.28,2.71-1.88a68,68,0,0,1,10.26-5.52l.9-.36L49,55.37c1-.37,2-.71,3-1q2.93-.93,5.91-1.61c1-.23,2.07-.44,3.11-.63q.72-.14,1.44-.24l.52-.08c2-.2,4-.39,6-.44a57,57,0,0,1,6.13.18l1.39.14h.17c1,.16,2,.33,2.94.54a42.47,42.47,0,0,1,5.65,1.64c.42.15.82.33,1.24.48l.16.08c.87.42,1.74.84,2.58,1.32s1.54.9,2.28,1.4l1.1.77.18.12.95,1.2a51.9,51.9,0,0,1,7.66-1.42,52.77,52.77,0,0,1,7.84-.26A43.49,43.49,0,0,0,98.48,46.85a47.28,47.28,0,0,0-11.42-5.64c-17.43-5.66-37.64-1.39-53.26,7.48A65.83,65.83,0,0,0,2.43,91a92.53,92.53,0,0,0,1.38,47.33,83.82,83.82,0,0,0,9.24,20.81A24.05,24.05,0,0,1,15.8,153.86ZM86.34,54.25,86,54.12A1.07,1.07,0,0,1,86.34,54.25Z"/><path class="cls-2" d="M99.87,100.38l.1-.15-.12.18Z"/><path class="cls-3" d="M464.88,198.78l-4.09-2.9c-3.62-2.43-5.45.07-6.32,1.27a8.47,8.47,0,0,1-.75.93c-14.59,15.93-30.18,25.06-42.79,25.06s-18.48-7.27-18.48-22.89v-.79c15.82-1.85,28.66-6.19,38.18-12.9,13.89-9.79,20.94-24.61,20.94-44.07,0-12.45-6.36-25.76-24.2-25.76-23.05,0-41.08,30.53-47.69,59.7l-2.3,5c-12,26.42-26,42.19-37.3,42.19-4.75,0-7.16-2.46-7.16-7.3,0-6.61,4.58-24.44,17.49-53,.63-1.39,1.25-2.74,1.85-4,3.51-7.64,6.29-13.68,6.29-18.31s-2.69-7.64-5.54-10.76c-.44-.49-1.16-1.24-2.06-2.17-3.92-4.07-13.1-13.61-14.22-18.71a3.88,3.88,0,0,1,.29-2.49l.49-.8a18.87,18.87,0,0,0,3.38-11c0-7.88-3.63-13.18-9-13.18-3.09,0-13.15,1.26-13.15,17.5a57.74,57.74,0,0,0,1.22,10.48,6.9,6.9,0,0,1-.33,4q-14.1,30.09-28.23,60.18c-3.13,6.67-9.12,19.39-12.26,26.05-3.18,5.37-7.23,8-9.62,7a3.78,3.78,0,0,1-2-2.35,31.54,31.54,0,0,0-11.61,9.07c1,1.92,5,9.47,12,10.26a11.28,11.28,0,0,0,3.64-.21c9.33-1.86,15.53-12.94,20.35-21.55.39-.7,1.78-3.22,3.82-6.7,1.25-2.13,1.74-2.89,2.59-4.36,1.68-2.92,3.27-5.9,4.8-8.9A6.15,6.15,0,0,0,304,181l1.36-2.92c.34-.71.69-1.41,1-2.12.11-.23.2-.46.29-.69l23.16-49.6c7.66,10.09,10.46,13.21,11.53,14.4a6.14,6.14,0,0,1,.41.47l.1.12c.93,1.09,1,1.25.66,2C340,149,337,156,334.07,162.8c-3.11,7.24-6,14.08-8.28,19.93L325,184.9c-4.37,11.68-7.52,20.12-7.52,30.32,0,14.63,6.86,22.05,20.4,22.05,8.72,0,23.87-4.08,39.8-27.11,2.78,18.43,13.22,27.11,32.25,27.11s39.44-11.42,55.73-31.33l.11-.15C465.5,203.46,465.19,201.12,464.88,198.78Zm-38.7-67.9c7.14,0,10.61,4,10.61,12.1,0,25.52-14.48,39.69-43,42.13C398.29,158.61,411.67,130.88,426.18,130.88Z"/><path class="cls-3" d="M265,197.13c-.32-1.46-.59-2.94-.82-4.42-.05-.31-.09-.63-.14-1,0,.05,0,.09,0,.14.21,1.68-.19-1.34-.05-.39a2.17,2.17,0,0,0,0,.25c-.1-.78-.19-1.57-.27-2.35-.49-4.74-.67-10.44-.67-10.44v-.12c2.85-7,5.75-15,12.85-33.53,13.43-35.08,13.26-33.07,17.37-45.19q1.38-4.06,2.56-7.77c2.79-.92,6.2-2.16,9.57-3.64,16-7,30.21-18.16,41.91-31.15a177.43,177.43,0,0,0,13.22-16.72c1.89-2.7.57-7.11-2.24-8.61-3.21-1.71-6.54-.62-8.56,2.26-1,1.38-2,2.75-3,4.1l-.7.94-.23.31.12-.16c.1.19-1.6,2-1.77,2.25q-3.69,4.61-7.71,8.91c-2.92,3.11-6,6.1-9.18,8.92q-2.43,2.15-5,4.16l-.53.42h0l-1.22.92c-1,.72-1.94,1.43-2.93,2.11a111.83,111.83,0,0,1-12.31,7.48c-1.68.87-3.39,1.68-5.11,2.46,6.36-24.29,4.12-32.48.43-36.48-1.05-1.13-5.38-5.82-10.6-5.31A10.94,10.94,0,0,0,283.63,39c-7.55,7.57-12.83,30-15.9,46-4.42.2-8.85.15-13.27-.07-3.85-.2-7.69-.52-11.52-.93q-3.09-.33-6.17-.73c-.55-.07-1.1-.13-1.65-.22h0l-.3,0-3.41-.49c-21.51-3.16-42.92-7.34-64.21-11.71-10.14-2.08-20.27-4.26-30.46-6A176.37,176.37,0,0,0,112,61.92l-1.73-.05a60.52,60.52,0,0,0-12.55,1.07,41.83,41.83,0,0,0-8.93,2.79c-5.8,2.61-10.39,7.41-14,12.55A30,30,0,0,0,70,102.79c2.5,9.86,11.77,17,22,15.92,15.69-1.66,25.72-18.7,26-33.39a45.44,45.44,0,0,0-1.1-10.54c1.63.13,3.26.28,4.88.47,1,.12,2.07.21,3.09.38h0l.28,0,1.73.25c9.31,1.39,18.54,3.29,27.76,5.19C175.27,85.36,196,89.46,216.8,93c15.53,2.6,31.33,5,47.13,4.83l1.56,0c-.08.49-.16,1-.24,1.39-2.84,16.7-6.36,33-7.77,39.52-.74,3.45-2.07,11.5-4.43,26.21-6,11.21-13.94,32.17-21.2,44.57q-3.19,5.46-6.5,10.86a4.69,4.69,0,0,0-.51,1.21c-3.71,5.14-7.41,8.06-10.47,8.26-2.51.16-3.51-.62-4.05-1.23-.93-1.05-1.49-3-1.66-5.63-.28-4.45.5-11.11,2.6-22.26l6.62-35,.54-2.65A65.3,65.3,0,0,0,220,145.1c-.89-14.16-8.28-18.89-14.32-20.36a23.2,23.2,0,0,0-7.29-.58,29.12,29.12,0,0,0-18.06,7.78c.05-.4.11-.8.15-1.21l.12-1.09-1.29-1c-.44-2.6-1.51-5.43-4-6.83a9,9,0,0,0-6.6-.34c-5.53,1.59-11.4,14.79-19.52,33.05-5.39,12.11-11.4,25.59-18.56,38.64a4.81,4.81,0,0,0-1,1.4c-.51,1.06-1,2.12-1.57,3.16-.48.84-1,1.68-1.44,2.51l-.14.23v.25a141.29,141.29,0,0,1-11.43,17.86l-1.18,1.55c-.1.13-.4.51-.55.72l.11-.14-.11.14c-.76,1-1.51,2-2.29,2.91a78.62,78.62,0,0,1-5.19,5.91c-.85.86-1.72,1.69-2.63,2.48-.39.34-.79.67-1.19,1l-.17.14c.37-.26,0,.08-.35.27a2.19,2.19,0,0,0,.35-.27l-.16.11a61.24,61.24,0,0,1-5.16,3.4,58.19,58.19,0,0,1-5.67,2.9l-.39.17c.52-.19-.26.11-.34.15l.34-.15-.07,0c-.5.18-1,.4-1.5.58-1.19.45-2.4.85-3.62,1.23a59.52,59.52,0,0,1-6.83,1.64l-1.4.23-.3.05.3-.05a9,9,0,0,0-.94.12c-1.37.14-2.74.24-4.11.28a53,53,0,0,1-7.56-.29l-.71-.08c.55.11-.09,0-.21,0l.21,0-.09,0c-.62-.12-1.24-.2-1.86-.32-1.36-.26-2.71-.58-4.05-.94s-2.74-.81-4.08-1.3q-.75-.27-1.5-.57l-.5-.2c.32.13.45.2,0,0l-.19-.08.18.07-.06,0a55.64,55.64,0,0,1-5.32-2.74c-1.7-1-3.28-2.16-4.9-3.28h0a3,3,0,0,0,.41.32s-.93-.68-.41-.32l-.1-.09-1-.83c-.7-.6-1.39-1.22-2.07-1.85q-1.95-1.84-3.71-3.86-.78-.9-1.53-1.83l0,0,0,.08s-.82-1-.38-.5c.12.14.23.28.34.43a8.23,8.23,0,0,0-.76-1A64.17,64.17,0,0,1,27.31,217c-.65-1.23-1.25-2.48-1.82-3.74-.17-.38-.37-.9-.45-1.12,0,.12.13.34.26.72-.2-.56-.45-1.12-.67-1.68A56.69,56.69,0,0,1,22,202.46c-.09-.43-.17-.87-.25-1.3s-.13-.79-.19-1.18c.05.41.11.86,0-.1-.17-1.23,0-.28,0,0,0,0,0,.07,0,.1,0-.14,0-.27,0-.35a63.72,63.72,0,0,1-.34-9.47c0-.92.09-1.84.17-2.75,0-.48.09-1,.14-1.43s.15-1.06.15-1.08l-.09.53.09-.53c.36-2.09.74-4.16,1.3-6.21.29-1.09.62-2.17,1-3.24.19-.55.38-1.09.58-1.64.1-.27.21-.55.32-.82l.09-.23a44.72,44.72,0,0,0,19.31,9.34c5.63,1.12,11.57,1.12,17-1.1a30.59,30.59,0,0,0,8-4.86A22.93,22.93,0,0,0,77.6,155.5a22.48,22.48,0,0,0-6.1-13,22,22,0,0,0-14.45-6.08c-7.52-.49-15.93,2.13-22.42,5.87a43.59,43.59,0,0,0-11.3,9.59,63.15,63.15,0,0,0-5.52,7.57c-.74,1.18-1.42,2.4-2.07,3.63A64.51,64.51,0,0,0,10,205.79,67.63,67.63,0,0,0,22.05,232a60.4,60.4,0,0,0,18.74,16.84c.62.35,2.5,1.41,5,2.52,5.3,2.37,14.82,5.66,28.52,5.44a67.18,67.18,0,0,0,28.59-9.12,56.92,56.92,0,0,0,11.62-8.89,129.56,129.56,0,0,0,11-13.3c.31-.41.61-.83.92-1.25v.18l1.74-2.43c1.19-1.66,2.31-3.36,3.34-5.07a144.83,144.83,0,0,0,9-16,7.58,7.58,0,0,0,.65-2.14c1.75-3.62,3.91-8.18,6.64-14.09q1.91-4.11,3.84-8.21c1.83-3.9,3.72-7.92,5.54-11.92l-14.83,76.19a4.29,4.29,0,0,0,.53,3.58,3.91,3.91,0,0,0,3,1.48l6,.58a5.72,5.72,0,0,0,.58,0,4.18,4.18,0,0,0,4.39-3.65l11.1-55c4.53-22.13,14.53-48.27,27.8-49.11,3.48-.22,8.17.6,8.78,10.26a51,51,0,0,1-1.43,14l-6.51,33.36c-1.81,9.26-3.58,19.89-3,28.53.4,6.27,2,10.91,4.81,14.18,3.36,3.86,8.42,5.61,15,5.19,8.56-.55,16.44-5.72,23.47-15.47.19-.3.38-.61.56-.94l.3-.25a11.45,11.45,0,0,0,2.24-2.67l.11-.18c4.5-7.78,8.44-15.18,11.56-21.26a49.79,49.79,0,0,0,1.69,4.85,50.69,50.69,0,0,0,2.67,5.59,31.44,31.44,0,0,1,11.61-9.07,28.59,28.59,0,0,1-1.46-3.54A32,32,0,0,1,265,197.13ZM102.68,71.42l-.06-.13a.61.61,0,0,1,0,.12Zm2.72,14.4c0,.49,0,1-.08,1.48l-.06.74c-.06.81.1.26.07-.07a10.54,10.54,0,0,1-.65,3c-.26,1-.59,2-.94,3l-.26.56q-.67,1.38-1.47,2.7c-.62,1.05-1.39,2-2,3,.24-.35.29-.33-.1.15l-.13.2c0-.07.08-.12.11-.18a.08.08,0,0,1,0,0c-.24.29-.48.57-.73.85a26.35,26.35,0,0,1-1.89,1.92l-.85.74,0,0a24,24,0,0,1-2.22,1.36l-.47.24-.08,0h0c-.46.24-.28.09-.12,0-.16,0-.31.11-.47.15-.4.12-.8.21-1.2.32l-.24.07h-.05c-.47,0-.93,0-1.4,0l-1,0h-.09l-.13,0c-.47-.12-1-.21-1.41-.35-.31-.09-.89-.36-.86-.33-.39-.21-.77-.41-1.15-.64l-.28-.19-.43-.37c-.42-.4-.79-.84-1.19-1.27.7.76.19.23-.12-.27-.19-.31-.36-.64-.53-1,0,0-.21-.38-.27-.54a23.6,23.6,0,0,1-.67-2.32c-.07-.32-.13-.65-.19-1a30.31,30.31,0,0,1-.09-3.69c0-.58.24-1.5,0-.4.11-.5.18-1,.3-1.49a30.09,30.09,0,0,1,.93-3L83,89c.23-.49.48-1,.74-1.44.46-.84,1-1.65,1.5-2.44q.34-.51.72-1c.5-.57,1-1.17,1.48-1.73.74-.82,1.52-1.6,2.32-2.36.38-.36.77-.69,1.16-1l.68-.47a32.86,32.86,0,0,1,3.34-1.84l.78-.29c.67-.24,1.36-.45,2.05-.64,1.39-.38,2.8-.66,4.22-.9l.1,0,1-.11c.27,0,.55,0,.82-.06.29.93.56,1.87.78,2.82s.42,2.15.62,3.24c0-.23-.07-.35-.08-.44,0,.16.08.49.11.77.06.58.1,1.17.13,1.75C105.42,83.82,105.44,84.82,105.4,85.82Zm19.39-10.19-.11,0,.11,0Zm156,20.56A120.67,120.67,0,0,1,287.28,82q-2.19.61-4.41,1.11c-1.55.35-3.1.65-4.67.91l-1.61.25c1.22-12.2,2-25.53,4.92-30.48.38-.66,1.37-2.34,2.87-2.62a3.59,3.59,0,0,1,3,1.33,10.34,10.34,0,0,1,2.06,5c.09.58.09.87.27,1,.79.49,2.34-4,4.91-4.78a4.21,4.21,0,0,1,4.42,1.88c2.12,3.43-1.91,11.1-8.7,25.51h0l-.06.12c-.46,1-.94,2-1.42,3-.21.44-.41.88-.61,1.32l-1.47,3.2,0,.09s0,0,0,0c-.41.9-.83,1.82-1.25,2.77-.6,1.34-1.18,2.64-1.73,3.9a.17.17,0,0,0,0,.05h0c-6.08,13.87-9.26,22.68-10.43,22.13-.45-.21-.4-1.71.8-12.27.38-3.38.71-6.17,1-8.48C277,96.78,278.91,96.52,280.78,96.19Zm-227.32,74Zm3.62-1Zm-13-17.65ZM31.44,161.66c.44-.51.83-1.09,1.26-1.58A40,40,0,0,1,36.77,156l.51-.43.89-.67c.9-.64,1.83-1.24,2.79-1.79s2-1,3-1.53l.51-.2.63-.24c1.13-.42,2.27-.8,3.43-1.13.71-.2,1.43-.39,2.16-.55.45-.1.91-.2,1.37-.28l.61-.11a1.71,1.71,0,0,1,.45,0l-.24,0c-.88-.12.32,0,.66-.05s.87-.06,1.31-.07a27.52,27.52,0,0,1,2.87.09l.12,0c.44.11.88.19,1.32.31.17,0,.54.11.85.21l.2.12.82.43c.41.24.79.52,1.19.76-.92-.57-.17-.12.25.29s.69.75,1,1.13c-.8-.85,0,.06.28.51s.4.85.66,1.22l0,0,0,.09a22.27,22.27,0,0,1,.73,2.66c0,.09,0,.27.07.44s0,.07,0,.09q.06.69.06,1.38c0,.33,0,.65,0,1v0s0,.12-.06.2c-.13.52-.28,1-.42,1.55,0,0,0,.17-.08.3l0,0c-.2.38-.38.76-.59,1.13s-.43.71-.66,1.06c-.07.1-.13.2-.2.29-.48.52-.92,1.06-1.43,1.56s-1.11.81-1.49,1.26c.32-.31.8-.49.1,0l-.23.16-.06.07,0-.06c-.18.13-.36.26-.55.38-.41.27-.82.53-1.24.78-.25.15-.51.29-.77.43l-.69.34h0c-.38.14-.77.28-1.16.4-.57.18-1.15.32-1.73.45l-.75.14h-.14a26.29,26.29,0,0,1-3.55,0l-.88-.07-1-.16c-1-.18-1.91-.41-2.85-.68-1.45-.41-2.87-.94-4.28-1.47l-.14,0-.09,0c-.42-.2-.84-.39-1.25-.6-.88-.44-1.75-.92-2.59-1.44s-1.52-1-2.25-1.48L34,164c.12.09,0,0-.08,0l-.17-.12.15.11-.21-.16-.85-.7c-.5-.42-1-.87-1.45-1.31l-.21.22h0l0,0,.18-.2,0,0C31.54,161.48,31.57,161.49,31.44,161.66Zm235.33,41.58.19.42-.16-.3a0,0,0,0,0,0,0,.36.36,0,0,0,0-.09l0,0a.2.2,0,0,1,0-.08Z"/></svg>